<svg id="visual" viewBox="0 0 960 540" width="960" height="540" xmlns="http://www.w3.org/2000/svg" xmlns:xlink="http://www.w3.org/1999/xlink" version="1.1"><g transform="translate(-162.21750646929252 -59.18992565520591)"><path d="M491.7 -686.6C645 -666.6 782.3 -543.3 870.9 -386.7C959.5 -230.2 999.4 -40.4 962.4 130.4C925.4 301.1 811.5 452.8 662.7 511C513.9 569.3 330.2 534.1 165.7 597.8C1.1 661.4 -144.2 823.9 -244.9 806.8C-345.5 789.6 -401.4 592.9 -419.9 438.1C-438.4 283.3 -419.7 170.5 -507.2 29.7C-594.7 -111.1 -788.6 -279.9 -791.7 -398.3C-794.8 -516.7 -607.2 -584.8 -443.4 -600C-279.7 -615.2 -139.8 -577.6 14.7 -600.5C169.2 -623.3 338.4 -706.6 491.7 -686.6" fill="#0066FF"></path></g></svg>