<svg id="visual" viewBox="0 0 960 540" width="960" height="540" xmlns="http://www.w3.org/2000/svg" xmlns:xlink="http://www.w3.org/1999/xlink" version="1.1"><path d="M642 540L657.3 527.2C672.7 514.3 703.3 488.7 726.3 463C749.3 437.3 764.7 411.7 767.8 386C771 360.3 762 334.7 769.5 308.8C777 283 801 257 813.2 231.2C825.3 205.3 825.7 179.7 793.7 154C761.7 128.3 697.3 102.7 677.8 77C658.3 51.3 683.7 25.7 696.3 12.8L709 0L960 0L960 12.8C960 25.7 960 51.3 960 77C960 102.7 960 128.3 960 154C960 179.7 960 205.3 960 231.2C960 257 960 283 960 308.8C960 334.7 960 360.3 960 386C960 411.7 960 437.3 960 463C960 488.7 960 514.3 960 527.2L960 540Z" fill="#2563eb" stroke-linecap="round" stroke-linejoin="miter"></path></svg>