<svg id="visual" viewBox="0 0 960 540" width="960" height="540" xmlns="http://www.w3.org/2000/svg" xmlns:xlink="http://www.w3.org/1999/xlink" version="1.1"><path d="M750 540L768.3 528.8C786.7 517.7 823.3 495.3 837.2 472.8C851 450.3 842 427.7 840.8 405.2C839.7 382.7 846.3 360.3 850.5 337.8C854.7 315.3 856.3 292.7 845 270.2C833.7 247.7 809.3 225.3 791.8 202.8C774.3 180.3 763.7 157.7 769.7 135.2C775.7 112.7 798.3 90.3 808.7 67.8C819 45.3 817 22.7 816 11.3L815 0L960 0L960 11.3C960 22.7 960 45.3 960 67.8C960 90.3 960 112.7 960 135.2C960 157.7 960 180.3 960 202.8C960 225.3 960 247.7 960 270.2C960 292.7 960 315.3 960 337.8C960 360.3 960 382.7 960 405.2C960 427.7 960 450.3 960 472.8C960 495.3 960 517.7 960 528.8L960 540Z" fill="#4ade80"></path><path d="M855 540L855.3 528.8C855.7 517.7 856.3 495.3 850.7 472.8C845 450.3 833 427.7 815.5 405.2C798 382.7 775 360.3 773.2 337.8C771.3 315.3 790.7 292.7 800 270.2C809.3 247.7 808.7 225.3 800 202.8C791.3 180.3 774.7 157.7 770.3 135.2C766 112.7 774 90.3 777.5 67.8C781 45.3 780 22.7 779.5 11.3L779 0L960 0L960 11.3C960 22.7 960 45.3 960 67.8C960 90.3 960 112.7 960 135.2C960 157.7 960 180.3 960 202.8C960 225.3 960 247.7 960 270.2C960 292.7 960 315.3 960 337.8C960 360.3 960 382.7 960 405.2C960 427.7 960 450.3 960 472.8C960 495.3 960 517.7 960 528.8L960 540Z" fill="#00d6bc"></path><path d="M795 540L792.5 528.8C790 517.7 785 495.3 796.7 472.8C808.3 450.3 836.7 427.7 837.5 405.2C838.3 382.7 811.7 360.3 815 337.8C818.3 315.3 851.7 292.7 854 270.2C856.3 247.7 827.7 225.3 823.3 202.8C819 180.3 839 157.7 846.3 135.2C853.7 112.7 848.3 90.3 853.3 67.8C858.3 45.3 873.7 22.7 881.3 11.3L889 0L960 0L960 11.3C960 22.7 960 45.3 960 67.8C960 90.3 960 112.7 960 135.2C960 157.7 960 180.3 960 202.8C960 225.3 960 247.7 960 270.2C960 292.7 960 315.3 960 337.8C960 360.3 960 382.7 960 405.2C960 427.7 960 450.3 960 472.8C960 495.3 960 517.7 960 528.8L960 540Z" fill="#00c7e4"></path><path d="M876 540L872.3 528.8C868.7 517.7 861.3 495.3 861.3 472.8C861.3 450.3 868.7 427.7 862.3 405.2C856 382.7 836 360.3 832.5 337.8C829 315.3 842 292.7 840.7 270.2C839.3 247.7 823.7 225.3 831 202.8C838.3 180.3 868.7 157.7 878.8 135.2C889 112.7 879 90.3 873.2 67.8C867.3 45.3 865.7 22.7 864.8 11.3L864 0L960 0L960 11.3C960 22.7 960 45.3 960 67.8C960 90.3 960 112.7 960 135.2C960 157.7 960 180.3 960 202.8C960 225.3 960 247.7 960 270.2C960 292.7 960 315.3 960 337.8C960 360.3 960 382.7 960 405.2C960 427.7 960 450.3 960 472.8C960 495.3 960 517.7 960 528.8L960 540Z" fill="#00b3ee"></path><path d="M855 540L859.7 528.8C864.3 517.7 873.7 495.3 873.8 472.8C874 450.3 865 427.7 870.8 405.2C876.7 382.7 897.3 360.3 895.7 337.8C894 315.3 870 292.7 870.2 270.2C870.3 247.7 894.7 225.3 898.8 202.8C903 180.3 887 157.7 880.8 135.2C874.7 112.7 878.3 90.3 873 67.8C867.7 45.3 853.3 22.7 846.2 11.3L839 0L960 0L960 11.3C960 22.7 960 45.3 960 67.8C960 90.3 960 112.7 960 135.2C960 157.7 960 180.3 960 202.8C960 225.3 960 247.7 960 270.2C960 292.7 960 315.3 960 337.8C960 360.3 960 382.7 960 405.2C960 427.7 960 450.3 960 472.8C960 495.3 960 517.7 960 528.8L960 540Z" fill="#009cf4"></path><path d="M908 540L903.5 528.8C899 517.7 890 495.3 891 472.8C892 450.3 903 427.7 901.5 405.2C900 382.7 886 360.3 879.7 337.8C873.3 315.3 874.7 292.7 880.2 270.2C885.7 247.7 895.3 225.3 898.2 202.8C901 180.3 897 157.7 901 135.2C905 112.7 917 90.3 917.5 67.8C918 45.3 907 22.7 901.5 11.3L896 0L960 0L960 11.3C960 22.7 960 45.3 960 67.8C960 90.3 960 112.7 960 135.2C960 157.7 960 180.3 960 202.8C960 225.3 960 247.7 960 270.2C960 292.7 960 315.3 960 337.8C960 360.3 960 382.7 960 405.2C960 427.7 960 450.3 960 472.8C960 495.3 960 517.7 960 528.8L960 540Z" fill="#0082f5"></path><path d="M905 540L906.8 528.8C908.7 517.7 912.3 495.3 912.3 472.8C912.3 450.3 908.7 427.7 907 405.2C905.3 382.7 905.7 360.3 911 337.8C916.3 315.3 926.7 292.7 927 270.2C927.3 247.7 917.7 225.3 919.7 202.8C921.7 180.3 935.3 157.7 934.3 135.2C933.3 112.7 917.7 90.3 910.5 67.8C903.3 45.3 904.7 22.7 905.3 11.3L906 0L960 0L960 11.3C960 22.7 960 45.3 960 67.8C960 90.3 960 112.7 960 135.2C960 157.7 960 180.3 960 202.8C960 225.3 960 247.7 960 270.2C960 292.7 960 315.3 960 337.8C960 360.3 960 382.7 960 405.2C960 427.7 960 450.3 960 472.8C960 495.3 960 517.7 960 528.8L960 540Z" fill="#2563eb"></path></svg>