<?xml version="1.0" standalone="no"?>
<svg xmlns:xlink="http://www.w3.org/1999/xlink" id="wave" style="transform:rotate(0deg); transition: 0.3s" viewBox="0 0 1440 250" version="1.1" xmlns="http://www.w3.org/2000/svg"><defs><linearGradient id="sw-gradient-0" x1="0" x2="0" y1="1" y2="0"><stop stop-color="rgba(62, 151.031, 243, 1)" offset="0%"/><stop stop-color="rgba(221.594, 11, 255, 1)" offset="100%"/></linearGradient></defs><path style="transform:translate(0, 0px); opacity:1" fill="url(#sw-gradient-0)" d="M0,150L120,125C240,100,480,50,720,45.8C960,42,1200,83,1440,120.8C1680,158,1920,192,2160,187.5C2400,183,2640,142,2880,129.2C3120,117,3360,133,3600,125C3840,117,4080,83,4320,58.3C4560,33,4800,17,5040,29.2C5280,42,5520,83,5760,116.7C6000,150,6240,175,6480,183.3C6720,192,6960,183,7200,154.2C7440,125,7680,75,7920,79.2C8160,83,8400,142,8640,154.2C8880,167,9120,133,9360,104.2C9600,75,9840,50,10080,62.5C10320,75,10560,125,10800,154.2C11040,183,11280,192,11520,200C11760,208,12000,217,12240,195.8C12480,175,12720,125,12960,120.8C13200,117,13440,158,13680,162.5C13920,167,14160,133,14400,137.5C14640,142,14880,183,15120,170.8C15360,158,15600,92,15840,62.5C16080,33,16320,42,16560,66.7C16800,92,17040,133,17160,154.2L17280,175L17280,250L17160,250C17040,250,16800,250,16560,250C16320,250,16080,250,15840,250C15600,250,15360,250,15120,250C14880,250,14640,250,14400,250C14160,250,13920,250,13680,250C13440,250,13200,250,12960,250C12720,250,12480,250,12240,250C12000,250,11760,250,11520,250C11280,250,11040,250,10800,250C10560,250,10320,250,10080,250C9840,250,9600,250,9360,250C9120,250,8880,250,8640,250C8400,250,8160,250,7920,250C7680,250,7440,250,7200,250C6960,250,6720,250,6480,250C6240,250,6000,250,5760,250C5520,250,5280,250,5040,250C4800,250,4560,250,4320,250C4080,250,3840,250,3600,250C3360,250,3120,250,2880,250C2640,250,2400,250,2160,250C1920,250,1680,250,1440,250C1200,250,960,250,720,250C480,250,240,250,120,250L0,250Z"/></svg>