<svg id="visual" viewBox="0 0 1920 340" width="1920" height="340" xmlns="http://www.w3.org/2000/svg" xmlns:xlink="http://www.w3.org/1999/xlink" version="1.1"><path d="M0 103L18.8 112C37.7 121 75.3 139 113 165.5C150.7 192 188.3 227 226 208.7C263.7 190.3 301.3 118.7 339 105.7C376.7 92.7 414.3 138.3 452 167.3C489.7 196.3 527.3 208.7 565 193.8C602.7 179 640.3 137 678 132.7C715.7 128.3 753.3 161.7 791 173.7C828.7 185.7 866.3 176.3 903.8 183.7C941.3 191 978.7 215 1016.2 202.7C1053.7 190.3 1091.3 141.7 1129 138.5C1166.7 135.3 1204.3 177.7 1242 170.7C1279.7 163.7 1317.3 107.3 1355 91.7C1392.7 76 1430.3 101 1468 136.2C1505.7 171.3 1543.3 216.7 1581 218.7C1618.7 220.7 1656.3 179.3 1694 157.3C1731.7 135.3 1769.3 132.7 1807 149.3C1844.7 166 1882.3 202 1901.2 220L1920 238L1920 341L1901.2 341C1882.3 341 1844.7 341 1807 341C1769.3 341 1731.7 341 1694 341C1656.3 341 1618.7 341 1581 341C1543.3 341 1505.7 341 1468 341C1430.3 341 1392.7 341 1355 341C1317.3 341 1279.7 341 1242 341C1204.3 341 1166.7 341 1129 341C1091.3 341 1053.7 341 1016.2 341C978.7 341 941.3 341 903.8 341C866.3 341 828.7 341 791 341C753.3 341 715.7 341 678 341C640.3 341 602.7 341 565 341C527.3 341 489.7 341 452 341C414.3 341 376.7 341 339 341C301.3 341 263.7 341 226 341C188.3 341 150.7 341 113 341C75.3 341 37.7 341 18.8 341L0 341Z" fill="#657de9"></path><path d="M0 148L18.8 168.3C37.7 188.7 75.3 229.3 113 235.8C150.7 242.3 188.3 214.7 226 189.3C263.7 164 301.3 141 339 132.7C376.7 124.3 414.3 130.7 452 146.3C489.7 162 527.3 187 565 209C602.7 231 640.3 250 678 233.5C715.7 217 753.3 165 791 147C828.7 129 866.3 145 903.8 157.7C941.3 170.3 978.7 179.7 1016.2 196.8C1053.7 214 1091.3 239 1129 236.7C1166.7 234.3 1204.3 204.7 1242 198.8C1279.7 193 1317.3 211 1355 202.7C1392.7 194.3 1430.3 159.7 1468 154.8C1505.7 150 1543.3 175 1581 179.2C1618.7 183.3 1656.3 166.7 1694 172.3C1731.7 178 1769.3 206 1807 198.7C1844.7 191.3 1882.3 148.7 1901.2 127.3L1920 106L1920 341L1901.2 341C1882.3 341 1844.7 341 1807 341C1769.3 341 1731.7 341 1694 341C1656.3 341 1618.7 341 1581 341C1543.3 341 1505.7 341 1468 341C1430.3 341 1392.7 341 1355 341C1317.3 341 1279.7 341 1242 341C1204.3 341 1166.7 341 1129 341C1091.3 341 1053.7 341 1016.2 341C978.7 341 941.3 341 903.8 341C866.3 341 828.7 341 791 341C753.3 341 715.7 341 678 341C640.3 341 602.7 341 565 341C527.3 341 489.7 341 452 341C414.3 341 376.7 341 339 341C301.3 341 263.7 341 226 341C188.3 341 150.7 341 113 341C75.3 341 37.7 341 18.8 341L0 341Z" fill="#6878e5"></path><path d="M0 267L18.8 268.2C37.7 269.3 75.3 271.7 113 272C150.7 272.3 188.3 270.7 226 256.3C263.7 242 301.3 215 339 195.2C376.7 175.3 414.3 162.7 452 173.2C489.7 183.7 527.3 217.3 565 217.7C602.7 218 640.3 185 678 175.3C715.7 165.7 753.3 179.3 791 192.5C828.7 205.7 866.3 218.3 903.8 210.8C941.3 203.3 978.7 175.7 1016.2 179C1053.7 182.3 1091.3 216.7 1129 233C1166.7 249.3 1204.3 247.7 1242 244.8C1279.7 242 1317.3 238 1355 241.3C1392.7 244.7 1430.3 255.3 1468 244.8C1505.7 234.3 1543.3 202.7 1581 206C1618.7 209.3 1656.3 247.7 1694 260.8C1731.7 274 1769.3 262 1807 254.8C1844.7 247.7 1882.3 245.3 1901.2 244.2L1920 243L1920 341L1901.2 341C1882.3 341 1844.7 341 1807 341C1769.3 341 1731.7 341 1694 341C1656.3 341 1618.7 341 1581 341C1543.3 341 1505.7 341 1468 341C1430.3 341 1392.7 341 1355 341C1317.3 341 1279.7 341 1242 341C1204.3 341 1166.7 341 1129 341C1091.3 341 1053.7 341 1016.2 341C978.7 341 941.3 341 903.8 341C866.3 341 828.7 341 791 341C753.3 341 715.7 341 678 341C640.3 341 602.7 341 565 341C527.3 341 489.7 341 452 341C414.3 341 376.7 341 339 341C301.3 341 263.7 341 226 341C188.3 341 150.7 341 113 341C75.3 341 37.7 341 18.8 341L0 341Z" fill="#6a72e0"></path><path d="M0 266L18.8 259.2C37.7 252.3 75.3 238.7 113 227C150.7 215.3 188.3 205.7 226 217.3C263.7 229 301.3 262 339 264.3C376.7 266.7 414.3 238.3 452 236.3C489.7 234.3 527.3 258.7 565 260.7C602.7 262.7 640.3 242.3 678 235.2C715.7 228 753.3 234 791 232.3C828.7 230.7 866.3 221.3 903.8 225.3C941.3 229.3 978.7 246.7 1016.2 245.7C1053.7 244.7 1091.3 225.3 1129 218.5C1166.7 211.7 1204.3 217.3 1242 222.2C1279.7 227 1317.3 231 1355 244.5C1392.7 258 1430.3 281 1468 290.3C1505.7 299.7 1543.3 295.3 1581 281C1618.7 266.7 1656.3 242.3 1694 229.2C1731.7 216 1769.3 214 1807 222C1844.7 230 1882.3 248 1901.2 257L1920 266L1920 341L1901.2 341C1882.3 341 1844.7 341 1807 341C1769.3 341 1731.7 341 1694 341C1656.3 341 1618.7 341 1581 341C1543.3 341 1505.7 341 1468 341C1430.3 341 1392.7 341 1355 341C1317.3 341 1279.7 341 1242 341C1204.3 341 1166.7 341 1129 341C1091.3 341 1053.7 341 1016.2 341C978.7 341 941.3 341 903.8 341C866.3 341 828.7 341 791 341C753.3 341 715.7 341 678 341C640.3 341 602.7 341 565 341C527.3 341 489.7 341 452 341C414.3 341 376.7 341 339 341C301.3 341 263.7 341 226 341C188.3 341 150.7 341 113 341C75.3 341 37.7 341 18.8 341L0 341Z" fill="#6c6cdb"></path><path d="M0 282L18.8 288.2C37.7 294.3 75.3 306.7 113 309.2C150.7 311.7 188.3 304.3 226 297.8C263.7 291.3 301.3 285.7 339 278.8C376.7 272 414.3 264 452 261.3C489.7 258.7 527.3 261.3 565 267.3C602.7 273.3 640.3 282.7 678 291.3C715.7 300 753.3 308 791 302.7C828.7 297.3 866.3 278.7 903.8 267.7C941.3 256.7 978.7 253.3 1016.2 259C1053.7 264.7 1091.3 279.3 1129 291.2C1166.7 303 1204.3 312 1242 311.8C1279.7 311.7 1317.3 302.3 1355 295.7C1392.7 289 1430.3 285 1468 280C1505.7 275 1543.3 269 1581 267C1618.7 265 1656.3 267 1694 268.2C1731.7 269.3 1769.3 269.7 1807 272.2C1844.7 274.7 1882.3 279.3 1901.2 281.7L1920 284L1920 341L1901.2 341C1882.3 341 1844.7 341 1807 341C1769.3 341 1731.7 341 1694 341C1656.3 341 1618.7 341 1581 341C1543.3 341 1505.7 341 1468 341C1430.3 341 1392.7 341 1355 341C1317.3 341 1279.7 341 1242 341C1204.3 341 1166.7 341 1129 341C1091.3 341 1053.7 341 1016.2 341C978.7 341 941.3 341 903.8 341C866.3 341 828.7 341 791 341C753.3 341 715.7 341 678 341C640.3 341 602.7 341 565 341C527.3 341 489.7 341 452 341C414.3 341 376.7 341 339 341C301.3 341 263.7 341 226 341C188.3 341 150.7 341 113 341C75.3 341 37.7 341 18.8 341L0 341Z" fill="#6e66d6"></path></svg>